<?xml version="1.0" encoding="utf-8"?>
<!-- Generator: Adobe Illustrator 18.1.0, SVG Export Plug-In . SVG Version: 6.00 Build 0)  -->
<!DOCTYPE svg PUBLIC "-//W3C//DTD SVG 1.1 Tiny//EN" "http://www.w3.org/Graphics/SVG/1.1/DTD/svg11-tiny.dtd">
<svg version="1.1" baseProfile="tiny" id="Layer_1" xmlns="http://www.w3.org/2000/svg" xmlns:xlink="http://www.w3.org/1999/xlink"
	 x="0px" y="0px" viewBox="0 0 29.5 14.7" xml:space="preserve">
<path id="bear" fill-rule="evenodd" fill="#322A3B" d="M8.1,7.3c0,0-1.8,2.4-2.5,3.2c-0.7,0.8-2.6,2.4-2.9,2.4s-1.2-0.2-1.4,0
	c-0.2,0.2-0.3,0.3-0.5,0.5c-0.2,0.2-0.6,0.3-0.6,0.5s-0.5,0.8-0.1,0.8c0.4,0,1.7,0,2.1,0s1.3,0,1.6,0c0.3,0.1,0.6,0.1,0.8,0.1
	s0.3-0.2,0.5-0.1c0.2,0,0.5,0,0.5,0s0.4-0.2,0.6-0.4c0.2-0.2,0.5-0.4,0.7-0.4c0.2,0,0.7-0.4,1.1-0.7c0.4-0.4,0.9-0.7,1.3-1
	c0.7-0.5,1.3-1.3,1.8-0.6c0.4,0.6,1.1,1.5,1.1,1.5s0.3,0.4-0.1,0.4s-0.8,0.1-0.9,0.2c-0.2,0.2-0.3,0.4-0.4,0.5
	c-0.1,0.1-0.5,0.5-0.4,0.6c0.1,0.1,0.7,0,1,0c0.3,0,1.4,0,1.8,0s1,0,1,0s0.6-0.6,0.8-0.7s0.5-0.5,0.5-0.5c0,0,0.3,0,0.3,0
	s0.1-0.1,0.1-0.2c0-0.1-0.4-0.7-0.5-1.4c-0.2-0.7-0.2-1.4-0.2-1.4s0.7,0,1.1,0.1c0.4,0.1,1,0.1,1,0.1s0.2,0.5,0.2,0.8
	c0,0.3,0,1.4,0,1.4s0,0.5-0.1,0.6c-0.1,0.1-0.8,0.1-0.8,0.3c0,0.1-0.2,0.2-0.4,0.5c-0.1,0.2-0.4,0.5-0.2,0.5c0.2,0,0.7,0,1.2,0
	c0.4,0,1.3,0,1.5,0c0.2,0,1.2,0,1.2,0s0.2-0.2,0.3-0.5s0.9-2.3,1.1-2.7s0.7-0.6,0.7-0.6s0.9,0.6,1.6,0.8c0.7,0.2,1.6,0.3,1.6,0.5
	s0.3,0.5,0.2,0.6c-0.1,0.2-0.6,0.3-0.8,0.4c-0.3,0.1-0.8,0.3-0.9,0.5s-0.1,0.5-0.2,0.6c0,0.1-0.2,0.2,0,0.3c0.1,0.1,1.1-0.1,1.5-0.1
	c0.4,0,1,0,1.3,0c0.2,0,0.8,0,1,0c0.2,0,0.3-0.1,0.3-0.1s0.4-0.6,0.5-0.7c0.2-0.2,0.6-0.6,0.7-0.7c0-0.1,0.1-0.3,0.2-0.4
	c0.1-0.1,0.2-0.1,0.2-0.2c0-0.1-1.3-1.7-1.4-3c0-1.2,0.4-1.7,0.4-2.7c0-1-0.4-1.8-0.4-1.8s0.5,0,1-0.2c0.5-0.3,0.6-0.4,0.6-0.5
	c0-0.1-0.3-0.2-0.6-0.4c-0.2-0.1-0.5-0.3-0.7-0.4c-0.5-0.3-1-0.7-1.1-0.7c-0.1,0-0.4,0.2-0.5,0.1c-0.1-0.1-0.6-1-1.9-1.8
	c-0.7-0.4-1.5-0.8-2.7-1C21.7,0,21.2,0,20.7,0c-2.2,0.1-2.9,0.7-4.3,0.7c-0.2,0-0.4,0-0.6-0.1c-0.6-0.1-1.1-0.2-1.4-0.2
	c-0.6-0.1-0.7-0.1-0.8-0.1c-0.2,0-1.8,0.4-2.5,0.5c-0.7,0.1-0.9,0-1.1,0C9.7,0.8,9.4,1,9,1C8.7,0.9,7.9,0.7,7.8,0.7
	c-0.1,0-0.3,0.1-0.5,0.1c-0.1,0-0.2,0-0.2,0C7,0.8,6.7,0.6,6.5,0.6S6.1,0.6,6,0.5C5.8,0.3,5.8,0.2,5.7,0.2c0,0-0.1,0-0.2,0
	c-0.2,0-0.3,0-0.4,0C5,0.2,4.6,0.4,4.5,0.5s0,0.4-0.1,0.5S4,1.4,3.8,1.5c-0.2,0-0.6,0.4-0.8,0.6C2.7,2.3,2.6,2.6,2.5,2.7
	C2.3,2.9,2.2,3,2.1,3.1C2,3.3,1.9,3.7,1.9,4c0,0.3,0.1,1,0,1.3C1.7,5.5,1.7,5.6,1.6,5.7C1.5,5.9,1.3,6.2,1.2,6.4
	C1,6.8,0.6,7.1,0.7,7.2c0,0.1,0.2,0.4,0.4,0.4c0.2,0,0.3,0.1,0.4,0.2S1.7,8.1,2,8.1S2.6,8,2.9,7.9c0.8-0.5,1.4-0.6,1.6-0.6
	c0.6,0.1,0.8,0.1,1.1-0.1C5.9,7,6.1,7,6.4,6.9c0.4-0.1,0.8-0.2,0.9-0.2c0.1,0,0.5,0,0.6,0.1C8.1,6.8,8.4,7,8.4,7L8.1,7.3z"/>
<path id="top" fill-rule="evenodd" fill="#5A5A6E" d="M3.8,6.7c-0.2,0-0.2-0.4-0.2-0.7c0-0.1-0.1,0.1-0.1,0c0-0.4,0.2-0.8-0.3-1
	C3.2,5.1,2.8,4.9,2.4,5c0,0,0.1-0.1,0.1-0.1c-0.1,0-0.1,0-0.2,0C2,4.9,1.9,5.1,1.9,5.1s0,0.1-0.1,0.2C1.7,5.5,1.6,5.6,1.6,5.7
	C1.4,6,1.2,6.3,1.1,6.6C1,6.8,0.7,7,0.7,7.2c0,0.1,0.1,0.3,0.2,0.4c0,0,0.1,0.1,0.2,0.1c0,0,0.1,0,0.2,0c0,0,0-0.1,0-0.2
	c0-0.1,0-0.1,0.1,0c0.1,0,0,0.2-0.1,0.3c0,0-0.1,0-0.1,0c0.1,0,0.1,0,0.2,0.1c0.1,0.1,0.2,0.2,0.3,0.3C1.7,8,1.8,8.1,1.9,8.1
	c0.2,0.1,0.5,0,0.7-0.1C3,7.9,3.3,7.5,3.8,7.4c0.1,0,0.2-0.1,0.3-0.1c0.1,0,0.5-0.2,0.4-0.5c0,0.1,0,0.1,0,0.1
	C4.3,6.8,4,6.7,3.8,6.7z M29,3.9c-0.4-0.2-0.7-0.4-1.1-0.6c-0.2-0.1-0.5-0.4-0.7-0.5c-0.2,0-0.4,0.2-0.6,0.1
	c-0.1-0.1-0.2-0.2-0.3-0.4c-0.2-0.3-0.5-0.6-0.8-0.8C24.3,0.7,23,0,20.6,0c-0.2,0-0.3,0-0.5,0c-0.3,0-0.7,0.1-1,0.1
	c-0.5,0.1-1.1,0.3-1.6,0.4c-0.2,0.1-0.4,0-0.7,0.1c-0.2,0-0.5,0-0.6,0c-0.6-0.1-1.1-0.2-1.7-0.3c-0.2,0-0.6-0.2-0.9-0.1
	c-0.8,0.2-1.6,0.4-2.5,0.5c-0.2,0-0.5,0.1-0.7,0c-0.1,0-0.3-0.1-0.4,0C9.7,0.8,9.4,1.1,9,1C8.6,0.9,8.2,0.8,7.8,0.7
	C7.5,0.6,7.3,0.8,7,0.8L6.6,0.6c-0.1,0-0.3,0-0.4,0C5.9,0.5,5.9,0.3,5.7,0.2c-0.1,0-0.2,0-0.3,0c-0.1,0-0.2,0-0.3,0
	c-0.1,0-0.5,0.3-0.6,0.4C4.5,0.7,4.5,1,4.4,1.1C4.4,1.1,4.3,1.2,4.2,1.2C4.1,1.3,4,1.4,3.9,1.4c-0.1,0-0.1,0-0.2,0.1
	c-0.1,0-0.1,0.1-0.2,0.1C3.3,1.7,3,2,2.8,2.2C2.7,2.4,2.6,2.5,2.5,2.7C2.4,2.8,2.1,3,2.1,3.1c0,0.1,0,0.2,0,0.3
	c0-0.1,0.1-0.1,0.1-0.1s0,0.2,0,0.3c0.2-0.1,0.2,0,0.4,0c0,0,0.1-0.1,0.1-0.1l0.2-0.2c0,0,0.1,0.1,0.1,0.1c0,0.1,0.1,0,0.2,0
	c0.1,0,0.2,0.1,0.2,0.1l0.1,0l0.1,0c0,0-0.1,0.1-0.2,0.1c-0.1,0-0.3,0-0.4,0c-0.1,0-0.1,0-0.2,0c0,0,0,0,0.1,0
	c-0.1,0-0.3,0.1-0.4,0.2c0,0-0.2,0.1-0.2,0.1s0.1,0,0.1,0C2.4,4.1,2.3,4.4,2.3,4.4c0,0,0-0.1,0.1-0.1c0.1,0.1,0.1,0.1,0.2,0.1
	C2.8,4.4,2.7,4,2.7,4S2.8,3.9,3,3.9c0.2,0,0.4,0.1,0.5,0.1c0.2,0,0.4-0.7,0.6-0.8C4.2,3,4.4,3,5.1,2.7c0.4-0.1,0.6-0.5,0.9-0.6
	C6.2,2.1,6.3,2,6.3,1.8c0,0-0.1,0.1-0.1,0.1c0.1-0.1,0.1-0.3,0.1-0.4c0.3,0.3,0,0.8,0,0.8s0.2,0,0.4,0c0.3,0,0.5,0.3,0.7,0.2
	C7.3,2.5,7.2,2.7,7.2,2.7s0.3,0,0.4,0C7.9,2.7,8,2.9,8.3,3c0.2,0.1,0.6,0.1,0.6,0.1S8.7,3.3,8.5,3.4C8.2,3.4,8.1,3.5,8,3.6
	c0.2,0,0.2-0.1,0.6,0C8.8,3.7,9,3.8,9.1,3.9C9.2,4,9.3,4.1,9.4,4.2C9.4,4.2,9.3,4,9.3,4C9.2,3.8,8.8,3.6,8.7,3.6
	c-0.1,0-0.3-0.1-0.4,0C8.5,3.4,8.6,3.4,9,3.3C9.1,3.2,9.3,3,9.5,3c0.2,0,0.4,0.2,0.6,0.1c0.4-0.2,0.7-0.4,1-0.7
	c0.1-0.1,0.3-0.2,0.4-0.3C11.6,2,11.7,2,11.9,2c0.1,0,0.2-0.1,0.3-0.1c0.1,0,0.5,0,0.6,0C12.8,1.9,12.9,2,13,2c0.1,0,0.2,0,0.2,0
	c0.4,0.1,0.6,0,0.9-0.1c0.3-0.1,0.4-0.1,0.7-0.2c0.1,0,0.2,0,0.2,0.1c0.3,0.2,0.6,0.7,1.2,0.5c0.3-0.1,0.7-0.2,1-0.3
	c0.1,0,0.2,0,0.3,0c0.1,0,0.1-0.1,0.2-0.1c0.1,0,0.3-0.1,0.4-0.1c0.4-0.1,0.6-0.4,1-0.5c0.2-0.1,0.9-0.3,1.1-0.3l0-0.5l0,0.5
	c0,0,0,0,0,0c0.4,0.1,0.9,0.6,1.2,0.8l0.2,0.2c0.3,0.2,0.5,0.5,0.8,0.7c0.1,0.1,0.2,0.1,0.3,0.2c0.3,0.2,0.5,0.5,0.8,0.8
	c0.2,0.1,0.4,0.1,0.6,0.2h0.2c0.1,0,0.1,0.1,0.2,0.1c0.1,0,0.2,0,0.3,0C25,4,25.1,4.2,25.2,4.3c0.2,0.2,0.5,0.2,0.8,0.3
	c0.1,0.1,0.3,0.2,0.4,0.2c0.2,0.1,0.4,0,0.6,0c0.1,0,0.2,0.1,0.3,0.1c0.2,0,0.3,0,0.5,0c0.1,0.1,0,0.2,0,0.4C28,5.5,28,5.6,28,5.8
	c0,0.1,0.2,0.1,0.2,1c0-0.7-0.2-1.3-0.4-1.7c0.5,0,0.8-0.1,1.2-0.3c0,0,0.1,0,0.1-0.1c0.1-0.1,0.3-0.2,0.3-0.3
	C29.4,4.1,29.1,4,29,3.9z M5.9,1.3L5.9,1.3c-0.1,0-0.1,0.1-0.2,0.2C5.6,1.6,5.6,1.8,5.6,1.8s0-0.1,0-0.2c0-0.1-0.1-0.1-0.1-0.1
	s-0.1,0-0.2,0c0,0,0-0.1,0-0.2c0,0,0.1-0.1,0.1-0.1s0.1-0.2,0-0.3C5.3,0.7,5.2,0.7,5.2,0.7l0.1-0.1c0,0-0.2,0-0.2,0
	C5,0.7,4.9,0.8,4.9,0.8s0-0.2,0-0.2c0,0,0.1-0.1,0.2-0.2c0.1,0,0.2,0,0.2,0s0.2,0,0.3,0.1c0.1,0,0.2,0.1,0.2,0.1
	c0,0.1,0.1,0.2,0.1,0.2L5.6,0.8c0,0,0.2,0.1,0.2,0.3C5.9,1.2,5.9,1.3,5.9,1.3z"/>
</svg>
